<svg width="920" height="240" viewBox="0 0 920 240" fill="none" xmlns="http://www.w3.org/2000/svg">
  <defs>
    <linearGradient id="leftGrad" x1="0%" y1="0%" x2="100%" y2="100%">
      <stop offset="0%" style="stop-color:#34d399"/>
      <stop offset="100%" style="stop-color:#047857"/>
    </linearGradient>
    <linearGradient id="rightGrad" x1="0%" y1="0%" x2="100%" y2="100%">
      <stop offset="0%" style="stop-color:#34d399"/>
      <stop offset="100%" style="stop-color:#047857"/>
    </linearGradient>
  </defs>
  
  <!-- Left swoosh of HS mark -->
  <path d="M 45 80 Q 35 85 35 100 L 35 140 Q 35 155 45 160 Q 55 160 65 150 L 75 130 Q 75 110 65 100 Q 55 95 45 80 Z" fill="url(#leftGrad)"/>
  
  <!-- Middle swoosh -->
  <path d="M 75 100 Q 85 95 95 100 L 95 140 Q 85 145 75 140 Z" fill="url(#rightGrad)" opacity="0.8"/>
  
  <!-- Right swoosh of HS mark -->
  <path d="M 95 80 Q 105 85 115 95 Q 125 105 125 120 L 125 140 Q 125 155 115 160 Q 105 160 95 155 L 95 100 Q 95 90 95 80 Z" fill="url(#rightGrad)"/>
  
  <!-- HOLLAND text -->
  <text x="180" y="132" font-family="system-ui, -apple-system, BlinkMacSystemFont, 'Segoe UI', sans-serif" font-size="72" font-weight="800" fill="#2d3748" letter-spacing="-1">HOLLAND</text>
  
  <!-- SYSTEMS text -->
  <text x="180" y="182" font-family="system-ui, -apple-system, BlinkMacSystemFont, 'Segoe UI', sans-serif" font-size="38" font-weight="400" fill="#9ca3af" letter-spacing="12">SYSTEMS</text>
</svg>
